<?xml version="1.0" standalone="no"?>
<svg xmlns:xlink="http://www.w3.org/1999/xlink" id="wave" style="transform:rotate(0deg); transition: 0.3s" viewBox="0 0 1440 450" version="1.1" xmlns="http://www.w3.org/2000/svg"><defs><linearGradient id="sw-gradient-0" x1="0" x2="0" y1="1" y2="0"><stop stop-color="rgba(33, 42, 62, 1)" offset="0%"/><stop stop-color="rgba(33, 42, 62, 1)" offset="100%"/></linearGradient></defs><path style="transform:translate(0, 0px); opacity:1" fill="url(#sw-gradient-0)" d="M0,360L130.9,270L261.8,180L392.7,405L523.6,270L654.5,360L785.5,360L916.4,360L1047.3,270L1178.2,135L1309.1,0L1440,360L1570.9,135L1701.8,270L1832.7,180L1963.6,90L2094.5,90L2225.5,225L2356.4,135L2487.3,180L2618.2,180L2749.1,135L2880,405L3010.9,135L3141.8,315L3141.8,450L3010.9,450L2880,450L2749.1,450L2618.2,450L2487.3,450L2356.4,450L2225.5,450L2094.5,450L1963.6,450L1832.7,450L1701.8,450L1570.9,450L1440,450L1309.1,450L1178.2,450L1047.3,450L916.4,450L785.5,450L654.5,450L523.6,450L392.7,450L261.8,450L130.9,450L0,450Z"/><defs><linearGradient id="sw-gradient-1" x1="0" x2="0" y1="1" y2="0"><stop stop-color="rgba(33, 42, 62, 1)" offset="0%"/><stop stop-color="rgba(33, 42, 62, 1)" offset="100%"/></linearGradient></defs><path style="transform:translate(0, 50px); opacity:0.9" fill="url(#sw-gradient-1)" d="M0,0L130.9,90L261.8,360L392.7,90L523.6,135L654.5,45L785.5,45L916.4,405L1047.3,45L1178.2,135L1309.1,90L1440,135L1570.9,360L1701.8,45L1832.7,360L1963.6,0L2094.5,0L2225.5,360L2356.4,180L2487.3,270L2618.2,360L2749.1,405L2880,90L3010.9,135L3141.8,0L3141.8,450L3010.9,450L2880,450L2749.1,450L2618.2,450L2487.3,450L2356.4,450L2225.5,450L2094.5,450L1963.6,450L1832.7,450L1701.8,450L1570.9,450L1440,450L1309.1,450L1178.2,450L1047.3,450L916.4,450L785.5,450L654.5,450L523.6,450L392.7,450L261.8,450L130.9,450L0,450Z"/></svg>